<svg width="247" height="121" viewBox="0 0 247 121" fill="none" xmlns="http://www.w3.org/2000/svg">
<g filter="url(#filter0_d_1362_18679)">
<path fill-rule="evenodd" clip-rule="evenodd" d="M30.0929 14.1227C29.1257 20.9796 27.9588 24.2608 25.7606 26.3044C23.6602 28.2572 20.6732 29.2488 13.9271 30.233C12.7944 30.3983 11.9293 30.5549 12.0046 30.5812C12.0799 30.6075 12.6755 30.6983 13.3281 30.783C15.3279 31.0426 18.1897 31.5501 19.5536 31.887C24.6025 33.1341 26.8772 34.9653 28.3705 38.9849C29.0156 40.7214 29.7688 44.3421 30.224 47.8947C30.3126 48.5868 30.4026 49.1356 30.424 49.1142C30.4453 49.0928 30.6031 48.0935 30.7747 46.8937C32.0906 37.6917 33.7605 34.6266 38.4821 32.7466C40.2504 32.0425 44.3384 31.1632 47.8317 30.7355C48.2835 30.6802 48.7148 30.611 48.7901 30.5819C48.8654 30.5527 48.2698 30.4335 47.4666 30.3168C39.9275 29.222 36.9452 28.2053 34.814 26.0037C32.7419 23.8631 31.7571 20.9778 30.768 14.1498C30.5992 12.9853 30.4467 12.0179 30.429 12.0002C30.4114 11.9825 30.2602 12.9376 30.0929 14.1227ZM57.2154 34.4505C50.5115 35.3 44.4843 38.5292 40.7909 43.2506C36.7101 48.4672 35.3502 55.9453 37.234 62.8095C39.4901 71.0302 46.5647 76.9342 56.1161 78.5673C63.0836 79.7586 70.8643 77.7563 76.2664 73.3817C79.77 70.5446 82.1916 66.8282 83.2998 62.588C83.8849 60.3489 83.9761 59.5396 83.9761 56.5785C83.9761 53.5652 83.8727 52.6876 83.2494 50.4043C81.6913 44.6974 77.7637 40.0042 72.1678 37.1626C69.58 35.8485 67.0683 35.0426 63.972 34.5327C62.7105 34.325 58.6005 34.275 57.2154 34.4505ZM105.777 34.4066C103.235 34.5952 100.338 35.187 98.4005 35.9132C93.9081 37.5972 91.1366 40.3892 90.1731 44.2012C89.5072 46.8357 89.7273 49.6024 90.7749 51.7677C92.2372 54.7902 95.0956 56.7287 100.241 58.1874C102.002 58.6866 103.977 59.0922 108.037 59.7879C114.872 60.9594 116.889 61.5014 118.753 62.6675C120.425 63.7138 121.105 65.0967 120.891 67.0174C120.742 68.3558 120.305 69.2959 119.44 70.1402C117.943 71.6022 115.673 72.2824 112.275 72.2875C110.573 72.2902 109.962 72.209 108.167 71.7423C106.854 71.4008 106.094 71.1345 103.466 70.0963C99.6786 68.5997 98.0709 68.1835 96.0728 68.1824C95.0886 68.1819 94.6789 68.2235 94.0374 68.3892C92.9839 68.6611 92.0812 69.0408 91.2486 69.5617L90.5723 69.9849L90.6292 70.5894C90.6604 70.9219 90.6864 72.6719 90.6867 74.4783L90.6874 77.7625L91.2579 77.1937C91.9895 76.4642 92.7652 75.9091 93.6164 75.5061C94.6 75.0404 95.2269 74.9051 96.4014 74.9051C98.1865 74.9051 99.2545 75.1928 102.988 76.6795C104.198 77.161 105.597 77.6982 106.097 77.873C107.285 78.288 109.313 78.7947 110.404 78.9491C111.462 79.099 114.217 79.0967 115.47 78.9448C121.876 78.1682 126.471 75.1384 128.078 70.631C128.553 69.2994 128.749 68.2584 128.808 66.7498C129.011 61.6084 126.513 58.1349 121.074 55.9955C118.576 55.0126 115.992 54.4062 110.084 53.417C107.875 53.047 105.739 52.6766 105.338 52.5939C100.977 51.6955 98.806 50.6063 97.968 48.8963C97.6884 48.326 97.6703 48.23 97.6722 47.3252C97.6744 46.2968 97.8159 45.6951 98.2241 44.9775C100.106 41.67 106.114 40.3234 113.485 41.5571C117.709 42.264 121.83 43.9038 123.973 45.7309C124.232 45.9517 124.466 46.1323 124.492 46.1323C124.518 46.1323 125.427 44.8515 126.511 43.2859L128.483 40.4395L128.275 40.2592C127.637 39.707 125.687 38.5067 124.415 37.8829C120.878 36.1486 116.79 35.0281 112.229 34.543C110.579 34.3675 107.251 34.2971 105.777 34.4066ZM135.688 56.5785V77.7457H139.385H143.082V75.4596C143.082 72.8863 143.204 71.6579 143.624 70.0233C144.715 65.7759 147.583 62.0045 152.404 58.4792C152.938 58.089 153.4 57.7697 153.431 57.7697C153.462 57.7697 153.488 57.8296 153.488 57.9029C153.488 58.1569 154.299 60.8447 154.72 61.9848C155.622 64.4274 157.203 67.2927 158.689 69.178C159.535 70.2521 161.335 72.0078 162.433 72.8314C165.555 75.1726 169.235 76.6514 173.63 77.331C176.007 77.6985 177.192 77.7457 184.039 77.7457H190.547V59.3733C190.547 44.7361 190.57 41.0009 190.661 41.0015C191.074 41.0038 192.458 41.4372 193.153 41.7817C194.693 42.5453 195.716 43.5904 196.602 45.3076C197.908 47.8357 198.358 50.3207 198.854 57.7239C199.149 62.1464 199.369 64.1131 199.815 66.3496C200.982 72.1974 203.679 75.6123 208.23 77.0038C209.746 77.4673 211.598 77.7498 213.067 77.7418L213.778 77.7379L220.669 63.6727L227.561 49.6076L227.584 63.6767L227.607 77.7457H231.303H235V56.5775V35.4092L231.294 35.4331L227.589 35.457L218.827 52.6841C214.008 62.1589 210.048 69.9283 210.027 69.9494C209.867 70.1107 208.353 68.7452 207.758 67.9039C206.094 65.5492 205.395 62.4836 204.881 55.2956C204.549 50.6498 204.297 48.4167 203.875 46.3651C202.733 40.8124 200.229 37.5851 195.984 36.1949C193.991 35.5422 192.546 35.4112 187.336 35.4112H183.153V53.3255V71.2398L181.031 71.2389C179.864 71.2383 178.416 71.1951 177.813 71.1426C168.211 70.3076 162.467 65.726 159.895 56.8506C159.341 54.9414 159.195 54.1984 159.344 54.0602C159.411 53.9976 160.432 53.3671 161.611 52.6591C166.467 49.745 168.611 48.1917 170.74 46.0466C171.518 45.2622 172.391 44.2852 172.68 43.8756C173.742 42.3719 174.49 40.6528 174.843 38.9105C175.049 37.8903 175.175 36.2342 175.084 35.745L175.021 35.4112H171.329H167.636V35.817C167.636 37.0106 167.219 38.6428 166.598 39.8748C165.609 41.8393 163.639 43.8603 160.836 45.7869C159.396 46.7765 158.328 47.4241 154.674 49.5236C152.892 50.5479 150.961 51.6747 150.384 52.0278C147.943 53.5208 145.456 55.3042 143.926 56.6599L143.082 57.4079V46.4095V35.4112H139.385H135.688V56.5785ZM58.8674 41.2837C55.979 41.4931 52.8542 42.5704 50.4332 44.1913C46.7488 46.6582 44.5398 50.303 44.0365 54.7458C43.8898 56.0408 43.9804 58.5446 44.216 59.7078C45.1524 64.3303 48.0976 68.0381 52.5326 70.1777C57.5125 72.5803 63.255 72.5325 68.187 70.0475C69.8874 69.1909 70.9638 68.409 72.3468 67.0265C73.6208 65.7529 74.4294 64.6273 75.1168 63.1705C76.5327 60.17 76.9047 56.6379 76.1749 53.1255C74.9796 47.3731 70.1738 42.8949 63.8005 41.5945C62.8761 41.4059 60.4891 41.1557 60.0175 41.198C59.9422 41.2047 59.4246 41.2433 58.8674 41.2837ZM133.851 89.8416C132.027 90.1327 130.594 91.133 129.89 92.606C129.349 93.7395 129.356 94.2736 129.92 94.9006C130.338 95.366 130.699 95.5226 131.353 95.5226C132.171 95.5226 132.697 95.1841 132.991 94.4688C133.325 93.6578 133.998 93.2358 134.958 93.2358C135.85 93.2358 136.564 93.6392 136.93 94.35C137.238 94.9478 137.166 96.5947 136.776 97.8608C136.448 98.9266 135.09 100.737 133.667 102.006C132.839 102.744 131.252 103.94 130.19 104.627C129.261 105.228 128.928 105.657 128.863 106.332C128.793 107.062 128.903 107.41 129.357 107.897C130.048 108.639 129.946 108.626 135.169 108.626C138.378 108.626 139.834 108.594 140.084 108.519C140.604 108.363 141.134 107.75 141.214 107.212C141.336 106.397 140.792 105.553 140.003 105.333C139.802 105.277 138.634 105.236 137.2 105.236L134.742 105.236L136.203 103.747C138.35 101.56 139.262 100.328 139.99 98.6335C140.544 97.3427 140.742 96.466 140.742 95.2935C140.743 94.1416 140.599 93.5324 140.099 92.5743C139.463 91.3551 138.146 90.364 136.647 89.9765C135.968 89.8013 134.536 89.7322 133.851 89.8416ZM167.715 89.8416C165.891 90.1327 164.458 91.133 163.755 92.606C163.214 93.7395 163.221 94.2736 163.785 94.9006C164.203 95.366 164.564 95.5226 165.218 95.5226C166.035 95.5226 166.561 95.1841 166.856 94.4688C167.189 93.6578 167.863 93.2358 168.822 93.2358C169.714 93.2358 170.428 93.6392 170.795 94.35C171.103 94.9478 171.031 96.5947 170.641 97.8608C170.313 98.9266 168.955 100.737 167.532 102.006C166.704 102.744 165.117 103.94 164.055 104.627C163.126 105.228 162.792 105.657 162.728 106.332C162.658 107.062 162.768 107.41 163.221 107.897C163.913 108.639 163.81 108.626 169.034 108.626C172.242 108.626 173.699 108.594 173.949 108.519C174.469 108.363 174.999 107.75 175.079 107.212C175.201 106.397 174.657 105.553 173.868 105.333C173.667 105.277 172.499 105.236 171.065 105.236L168.606 105.236L170.068 103.747C172.215 101.56 173.127 100.328 173.854 98.6335C174.409 97.3427 174.606 96.466 174.607 95.2935C174.608 94.1416 174.464 93.5324 173.964 92.5743C173.328 91.3551 172.011 90.364 170.511 89.9765C169.833 89.8013 168.401 89.7322 167.715 89.8416ZM79.8735 90.1706C79.4125 90.3401 79.027 90.7029 78.8116 91.17C78.6512 91.5176 78.6425 91.9371 78.6425 99.3253C78.6425 106.663 78.6521 107.135 78.8087 107.482C79.1236 108.177 79.8478 108.627 80.6466 108.624C81.3226 108.62 82.1504 108.009 82.3687 107.352C82.5178 106.904 82.515 91.7927 82.3658 91.2928C82.3024 91.0805 82.1032 90.7917 81.8733 90.5789C81.2918 90.0409 80.607 89.901 79.8735 90.1706ZM87.4854 90.1486C86.2469 90.5979 85.8308 91.9695 86.6549 92.8864C87.1897 93.4813 87.313 93.5066 89.6804 93.5066H91.7827V100.1C91.7827 104.654 91.8146 106.843 91.8859 107.178C92.1776 108.551 93.9579 109.095 95.0399 108.141C95.7381 107.525 95.7034 107.933 95.7057 100.31L95.7077 93.5066H97.9021C99.8999 93.5066 100.128 93.4906 100.446 93.3274C101.184 92.9496 101.571 92.1557 101.377 91.4174C101.232 90.8617 101.039 90.6038 100.555 90.3186L100.135 90.0704L93.9734 90.0502C89.1227 90.0344 87.7426 90.0553 87.4854 90.1486ZM107.642 90.1197C106.695 90.3559 105.798 91.0852 105.392 91.9489L105.155 92.4528L105.158 99.2337C105.16 105.494 105.173 106.051 105.323 106.489C105.654 107.458 106.446 108.182 107.51 108.489C107.973 108.622 108.457 108.637 111.344 108.604C114.351 108.569 114.711 108.549 115.346 108.373C117.8 107.695 119.068 105.986 119.074 103.349C119.076 102.487 118.816 101.356 118.488 100.794C118.217 100.33 117.572 99.7205 117.099 99.4818C116.752 99.307 116.095 99.0823 115.561 98.9561C115.289 98.8919 115.29 98.8905 115.745 98.732C116.495 98.4704 116.969 98.1911 117.402 97.7568C118.189 96.9671 118.604 95.6117 118.479 94.2397C118.284 92.09 117.237 90.8732 115.073 90.2789C114.437 90.1042 114.089 90.0848 111.18 90.0607C109.408 90.046 107.832 90.0722 107.642 90.1197ZM150.795 90.1539C147.609 90.7794 145.559 93.318 144.958 97.3843C144.489 100.552 145.087 103.872 146.514 106.03C147.458 107.459 148.983 108.533 150.521 108.856C152.082 109.183 153.898 108.945 155.256 108.236C156.118 107.786 157.267 106.695 157.762 105.855C159.075 103.63 159.6 100.566 159.194 97.5027C158.865 95.0216 158.014 93.1777 156.556 91.788C155.815 91.0811 154.783 90.5041 153.807 90.2508C153.029 90.0489 151.569 90.002 150.795 90.1539ZM180.002 90.2439C179.665 90.3914 179.16 90.953 179.082 91.2683C178.973 91.7038 179.097 92.3834 179.346 92.711C179.83 93.3471 179.925 93.364 183.35 93.415L186.422 93.4608L183.875 96.1503C181.809 98.3316 181.328 98.8873 181.328 99.0913C181.328 99.5801 181.483 99.6228 183.427 99.6704C185.486 99.7209 185.823 99.8037 186.518 100.431C187.297 101.134 187.604 102.264 187.32 103.38C186.974 104.734 185.936 105.603 184.666 105.602C183.682 105.601 182.964 105.183 182.46 104.318C182.068 103.644 181.582 103.36 180.826 103.363C179.813 103.367 179.095 103.978 178.991 104.923C178.949 105.31 178.988 105.468 179.269 106.047C179.875 107.297 180.93 108.14 182.518 108.64C183.111 108.827 183.381 108.855 184.614 108.853C185.958 108.852 186.068 108.838 186.815 108.571C188.75 107.88 190.022 106.531 190.653 104.503C190.831 103.93 190.866 103.617 190.866 102.624C190.866 101.568 190.838 101.345 190.612 100.654C190.294 99.6818 189.665 98.7375 188.951 98.1588C188.34 97.6639 187.279 97.1872 186.614 97.1081C186.364 97.0784 186.144 97.0285 186.125 96.997C186.106 96.9656 186.948 96.1818 187.998 95.2551C190.113 93.3869 190.273 93.1776 190.273 92.2835C190.273 91.3604 189.875 90.7303 189.041 90.3346L188.584 90.118L184.431 90.1207C181.204 90.1228 180.217 90.1503 180.002 90.2439ZM108.761 95.6142V97.8134H110.798C113.048 97.8134 113.504 97.7388 114.203 97.2558C114.713 96.9036 114.968 96.3646 114.968 95.637C114.968 94.7151 114.679 94.2421 113.86 93.8225C113.245 93.5076 112.496 93.4165 110.518 93.4157L108.761 93.415V95.6142ZM151.087 93.6336C149.55 94.2073 148.699 95.911 148.517 98.7779C148.361 101.229 148.915 103.526 149.927 104.628C150.479 105.23 151.011 105.456 151.965 105.496C152.716 105.527 152.809 105.51 153.347 105.244C154.058 104.893 154.509 104.404 154.909 103.552C155.318 102.681 155.479 102.021 155.605 100.684C155.724 99.4365 155.611 97.6549 155.352 96.668C155.004 95.341 154.24 94.217 153.384 93.7723C152.88 93.5107 151.62 93.4346 151.087 93.6336ZM108.802 100.587C108.777 100.651 108.768 101.754 108.782 103.038L108.806 105.373L110.449 105.399C113.047 105.44 114.138 105.226 114.821 104.539C115.576 103.78 115.637 102.369 114.952 101.534C114.597 101.102 113.703 100.677 112.914 100.565C111.936 100.426 108.857 100.442 108.802 100.587Z" fill="#FFFC83"/>
</g>
<defs>
<filter id="filter0_d_1362_18679" x="0.810512" y="0.810512" width="245.379" height="119.379" filterUnits="userSpaceOnUse" color-interpolation-filters="sRGB">
<feFlood flood-opacity="0" result="BackgroundImageFix"/>
<feColorMatrix in="SourceAlpha" type="matrix" values="0 0 0 0 0 0 0 0 0 0 0 0 0 0 0 0 0 0 127 0" result="hardAlpha"/>
<feOffset/>
<feGaussianBlur stdDeviation="5.59474"/>
<feComposite in2="hardAlpha" operator="out"/>
<feColorMatrix type="matrix" values="0 0 0 0 0.447059 0 0 0 0 0.847059 0 0 0 0 0.729412 0 0 0 1 0"/>
<feBlend mode="normal" in2="BackgroundImageFix" result="effect1_dropShadow_1362_18679"/>
<feBlend mode="normal" in="SourceGraphic" in2="effect1_dropShadow_1362_18679" result="shape"/>
</filter>
</defs>
</svg>
